<!DOCTYPE svg PUBLIC "-//W3C//DTD SVG 1.1//EN" "http://www.w3.org/Graphics/SVG/1.1/DTD/svg11.dtd">
<!-- Uploaded to: SVG Repo, www.svgrepo.com, Transformed by: SVG Repo Mixer Tools -->
<svg fill="#ffffff" width="800px" height="800px" viewBox="0 0 32 32" id="icon" xmlns="http://www.w3.org/2000/svg" stroke="#ffffff">
<g id="SVGRepo_bgCarrier" stroke-width="0"/>
<g id="SVGRepo_tracerCarrier" stroke-linecap="round" stroke-linejoin="round"/>
<g id="SVGRepo_iconCarrier"> <defs> <style> .cls-1 { fill: none; } </style> </defs> <rect x="8" y="8" width="2" height="4"/> <rect x="8" y="14" width="2" height="4"/> <rect x="14" y="8" width="2" height="4"/> <rect x="14" y="14" width="2" height="4"/> <rect x="8" y="20" width="2" height="4"/> <rect x="14" y="20" width="2" height="4"/> <polygon points="30 14 21.83 14 24.41 16.59 23 18 18 13 23 8 24.41 9.41 21.83 12 30 12 30 14"/> <path d="M28,20v8H22V20H20v8H4V4H20V6h2V4a2,2,0,0,0-2-2H4A2,2,0,0,0,2,4V30H30V20Z"/> <rect id="_Transparent_Rectangle_" data-name="&lt;Transparent Rectangle&gt;" class="cls-1" width="32" height="32"/> </g>
</svg>